<?xml version="1.0" encoding="utf-8"?>
<!-- Generator: Adobe Illustrator 21.1.0, SVG Export Plug-In . SVG Version: 6.00 Build 0)  -->
<svg version="1.1" id="Calque_1" xmlns="http://www.w3.org/2000/svg" xmlns:xlink="http://www.w3.org/1999/xlink" x="0px" y="0px"
	 viewBox="0 0 432 432" style="enable-background:new 0 0 432 432;" xml:space="preserve">
<style type="text/css">
	.st0{fill:#BE1622;}
	.st1{fill:#C69C6C;}
	.st2{fill:#F39200;}
	.st3{fill:#F9B03D;}
	.st4{fill:#5BA7AD;}
	.st5{fill:#3F7579;}
	.st6{fill:#1B1B1B;}
	.st7{fill:#FFFFFF;}
	.st8{fill:#D8B6C4;}
	.st9{fill:#765844;}
	.st10{fill:#E9B2C5;}
	.st11{fill:#C7B29A;}
	.st12{fill:#EDBD7D;}
	.st13{fill:#1D71B8;}
	.st14{fill:#95C11F;}
	.st15{fill:#E94E1B;}
	.st16{fill:#575756;}
	.st17{fill:#844C16;}
	.st18{fill:#E50071;}
	.st19{fill:#AF175D;}
	.st20{fill:#E4051E;}
	.st21{fill:#13110C;}
	.st22{fill:#891A2C;}
	.st23{fill:#28295F;}
	.st24{fill:#CECFBC;}
	.st25{fill:#981F24;}
	.st26{fill:#020203;}
	.st27{fill:#BC2333;}
	.st28{fill:#AD1917;}
	.st29{fill:#04683B;}
	.st30{fill:#049348;}
	.st31{fill:#2D3D8D;}
	.st32{fill:#F39233;}
	.st33{fill:#EB5C35;}
	.st34{fill:#AA1917;}
	.st35{fill:#55514F;}
	.st36{fill:#20376D;}
	.st37{fill:#B3BBC5;}
	.st38{fill:#BAC6BC;}
	.st39{fill:#B4BA8C;}
	.st40{fill:#746458;}
	.st41{fill:#343434;}
	.st42{fill:#CEC3BC;}
	.st43{fill:#FBBA0E;}
	.st44{fill:#FED98D;}
	.st45{fill:#676767;}
	.st46{fill:#8DBE22;}
	.st47{fill:#D0E1A4;}
	.st48{fill:#EFE8E4;}
	.st49{fill:#754695;}
	.st50{fill:#A78BC0;}
	.st51{fill:#8EC045;}
	.st52{fill:#0D71B9;}
	.st53{fill:#EAC686;}
	.st54{fill:#D24063;}
	.st55{fill:#E2A11A;}
	.st56{fill:#E9BD71;}
	.st57{fill:#E8423E;}
	.st58{fill:#F8AE4C;}
	.st59{fill:#00A19A;}
	.st60{fill:#2578B9;}
	.st61{fill:#A29F9D;}
	.st62{fill:#D2B89A;}
	.st63{fill:#E6C2A9;}
	.st64{fill:#6E3B11;}
	.st65{fill:#9B6228;}
	.st66{fill:#C9A1CB;}
	.st67{fill:#F8AB00;}
	.st68{fill:#BEBBBB;}
	.st69{fill:#066938;}
	.st70{fill:#36A36A;}
	.st71{fill:#4F702A;}
	.st72{fill:#A4191E;}
	.st73{fill:#3AAA35;}
	.st74{fill:#D01419;}
	.st75{fill:#CA1527;}
	.st76{fill:#684A40;}
	.st77{fill:#9A7B65;}
	.st78{fill:#FBB700;}
	.st79{fill:#82BB26;}
	.st80{fill:#00A8E4;}
	.st81{fill:#CEA57B;}
	.st82{fill:#57B031;}
	.st83{fill:#E5251F;}
	.st84{fill:#EFDD37;}
	.st85{fill:#59C4E9;}
	.st86{fill:#F08017;}
	.st87{fill:#974393;}
	.st88{fill:#F9EA31;}
	.st89{fill:#C1292E;}
	.st90{fill:#F2D77E;}
	.st91{fill:#E6332A;}
	.st92{fill:#29235C;}
	.st93{fill:#3C3C3B;}
	.st94{fill:#2FAC66;}
	.st95{fill:#2D2E83;}
	.st96{fill:#645B51;}
	.st97{fill:#36A9E1;}
	.st98{fill:#312783;}
	.st99{fill:#2E4959;}
	.st100{fill:#5F8699;}
	.st101{fill:#172B35;}
	.st102{fill:#C3D5E4;}
	.st103{fill:#7B9135;}
	.st104{fill:#E59546;}
	.st105{fill:#B2C65F;}
	.st106{fill:#85BBB7;}
	.st107{fill:#F39323;}
	.st108{fill:#FFFFFE;}
	.st109{fill:#EFD2AC;}
	.st110{fill:#C0E0EF;}
	.st111{fill:#EFDAEC;}
	.st112{fill:#63B8A4;}
	.st113{fill:#BDCCD4;}
	.st114{fill:#8C633A;}
	.st115{fill:#CA9E67;}
	.st116{fill:#7D4E24;}
	.st117{fill:#B8B569;}
	.st118{fill:#E8C515;}
	.st119{fill:#A5A258;}
	.st120{fill:#AA884D;}
	.st121{fill:#9E994B;}
	.st122{fill:#D1A479;}
	.st123{fill:#936037;}
	.st124{fill:#FAFAFA;}
	.st125{fill:#98CDC5;}
	.st126{fill:#E1EBE8;}
	.st127{fill:#DDCE9E;}
	.st128{fill:#A67D52;}
	.st129{fill:#437156;}
	.st130{fill:#4F8366;}
	.st131{fill:#8F6947;}
	.st132{fill:#856143;}
	.st133{fill:#171512;}
	.st134{fill:#AA191B;}
	.st135{fill:#1C1A38;}
	.st136{fill:#8E8C38;}
	.st137{fill:#CAC955;}
	.st138{fill:#6C6A29;}
	.st139{fill:#D8D564;}
	.st140{fill:#5CABD5;}
	.st141{fill:#70B4D9;}
	.st142{fill:#9A9999;}
	.st143{fill:#B4B4B4;}
	.st144{fill:#ABAA3D;}
	.st145{fill:#D7DB2F;}
	.st146{fill:#B8CED8;}
	.st147{fill:#05AB9E;}
	.st148{fill:#DAB828;}
	.st149{fill:#EB7533;}
	.st150{fill:#EDE4CA;}
	.st151{fill:#575452;}
	.st152{fill:#F9F6F4;}
	.st153{fill:#94B2AA;}
	.st154{fill:#D8D7C4;}
	.st155{fill:#BAD68E;}
	.st156{fill:#F0E6E1;}
	.st157{fill:#BFD786;}
	.st158{fill:#E9E499;}
	.st159{fill:#A2D3C2;}
	.st160{fill:#EB7976;}
	.st161{fill:#EEF4E7;}
	.st162{fill:#EADA7F;}
	.st163{fill:#B2D9C2;}
	.st164{fill:#43B284;}
	.st165{fill:#9AC028;}
	.st166{fill:#D8AD80;}
	.st167{fill:#F2F2F2;}
	.st168{fill:#767574;}
	.st169{fill:#CDC8C6;}
	.st170{fill:#634E42;}
	.st171{fill:#E4E0DF;}
	.st172{fill:#D98F53;}
	.st173{fill:#E2CAB5;}
	.st174{fill:#B61824;}
	.st175{fill:#E2BAA0;}
	.st176{fill:#CF455A;}
	.st177{fill:#648546;}
	.st178{fill:#4F6834;}
	.st179{fill:#91BB64;}
	.st180{fill:#D1CE4D;}
	.st181{fill:#CFCE67;}
	.st182{fill:#E5E4BD;}
	.st183{fill:#A69F28;}
	.st184{fill:#E3BF32;}
	.st185{fill:#E68024;}
	.st186{fill:#D27444;}
	.st187{fill:#D1B05A;}
	.st188{fill:#F4E3BD;}
	.st189{fill:#668852;}
	.st190{fill:#A3C18F;}
	.st191{fill:#D8B41E;}
	.st192{fill:#E2DBBA;}
	.st193{fill:#603914;}
	.st194{fill:#CF1042;}
	.st195{fill:#2F8A7F;}
	.st196{fill:#D19A69;}
	.st197{fill:#E9C3A4;}
	.st198{fill:#F2BF21;}
	.st199{fill:#CFD3D1;}
	.st200{fill:#E9F2ED;}
	.st201{fill:#4E4D4D;}
	.st202{fill:#C4E2D0;}
	.st203{fill:#F3F3F3;}
	.st204{fill:#F8FAF9;}
	.st205{fill:#C6B5A8;}
	.st206{fill:#F2F1E7;}
	.st207{fill:#CEC87B;}
	.st208{fill:#C7E4E5;}
	.st209{fill:#D4894A;}
	.st210{fill:#FBFDFA;}
	.st211{fill:#B4CD5F;}
	.st212{fill:#1F1B15;}
	.st213{fill:#161210;}
	.st214{fill:#A8D1D2;}
	.st215{fill:#8E6640;}
	.st216{fill:#B22518;}
	.st217{fill:#683F1D;}
	.st218{fill:#F0F7F7;}
	.st219{fill:#CD924B;}
	.st220{fill:#CDCCCC;}
	.st221{fill:#F2D7C0;}
	.st222{fill:#B21924;}
	.st223{fill:#EDCEB1;}
	.st224{fill:#7D552C;}
	.st225{fill:#A0BC6F;}
	.st226{fill:#94AD65;}
	.st227{fill:#E7E6E6;}
	.st228{fill:#9FD6DB;}
	.st229{fill:#EACD7F;}
	.st230{fill:#E28C52;}
	.st231{fill:#141414;}
	.st232{fill:#E97E28;}
	.st233{fill:#D0C657;}
	.st234{fill:#F3BC95;}
	.st235{fill:#FBFDFC;}
	.st236{fill:#CA252F;}
	.st237{fill:#B8B6B7;}
	.st238{fill:#808181;}
	.st239{fill:#F7F5DB;}
	.st240{fill:#CA1618;}
	.st241{fill:#FDC30B;}
	.st242{fill:#5F3917;}
	.st243{fill:#FFDA36;}
	.st244{fill:#AB7049;}
	.st245{fill:#619DCF;}
	.st246{fill:#45779A;}
	.st247{fill:#68AFA1;}
	.st248{fill:#108E77;}
	.st249{fill:#A5779F;}
	.st250{fill:#008D36;}
	.st251{fill:#E83E49;}
	.st252{fill:#A12D38;}
	.st253{fill-rule:evenodd;clip-rule:evenodd;fill:#677124;}
</style>
<g>
	<g>
		<g>
			<path class="st89" d="M261.6,241.7c-1.3-0.1-2.6,0-3.8,0.5c-0.2,0.1-0.3,0.1-0.5,0.2c-2.5,0.9-5,1.8-7.6,2.6
				c-0.8,0.3-1.6,0.2-2.5,0.4c-0.3,0-0.6,0.1-0.9,0.3c-1.1,0.8-2,0.6-2.3-0.9c-0.8-3.7-1.5-7.6-2-11.4c-4.2,0.8-8.4,1.5-12.7,2.3
				c0.6,10.5,1.3,12-0.5,11.8c-1.8-0.2-1.7-2.6-1.7-3.2c-13.2,4.5-15.2,5-15.1,3c3.9-39,9.6-23-0.3-32.8c-4.2-4.1,2.9-5,9-6.9
				c0.6-5.8-0.9,0.5,6.6-29.9c0.1-0.4,0.1-0.8,0.4-1.1c0.4-0.3,1-0.7,1.3-0.6c0.4,0.1,0.7,0.8,0.7,1.2c0,0.7-0.2,1.4-0.4,2
				c4.4-1.1,8.7-2.2,13.1-3.3c0-0.1,0-0.5,0.2-0.7c0.3-0.3,0.7-0.7,1.1-0.7c0.4,0,0.9,0.3,1.1,0.6c11.6,33.1,4.6,27.2,16.7,26.8
				c1.8-0.1,3.2,1.4,2.9,3.2c-0.3,2-1.2,3.6-2.4,5.2c-1.5,1.9-3,3.8-4.4,5.7c-0.2,0.3-0.3,0.8-0.2,1.1c1.6,7.6,3.3,15.2,4.9,22.8
				c0.1,0.5-0.1,1.5-0.5,1.7C261.9,241.7,261.8,241.7,261.6,241.7z M240.9,223.5c-0.8-4.2-1.6-8.2-2.4-12.3c-0.1,0-0.2,0-0.3,0
				c-2.2,4.2-4.4,8.5-6.7,12.9C234.8,223.9,237.8,223.7,240.9,223.5z"/>
			<path class="st89" d="M165.2,243.2c5.6-70,3.1-67.7,5.4-67.8c1,0,1.2,0.8,1.3,1.6c0,0.2,0,0.3,0.1,0.6c1.4-0.2,2.8-0.4,4.1-0.5
				c4.8-0.5,9.6-1,14.4-1.5c1.1-0.1,2.1-0.6,3.2-0.7c1.5-0.2,3.1-0.3,4.6-0.3c0.3,0,0.8,0.5,0.8,0.8c-0.1,0.4-0.4,1-0.7,1.2
				c-0.6,0.3-1.3,0.4-2.1,0.6c0.8,2.2,1.6,4.1,2.1,6.5c1,4.9,2.9,9.5,5.2,13.9c2,3.7-1,7.1-3.5,8.5c-3.7,2.1-7.4,4.1-11,6.1
				c2,2.8,4,5.7,6,8.5c2.6,3.6,5.3,7.2,7.9,10.8c0.2,0.3,0.5,0.6,0.8,0.8c1.2,0.8,1.5,2.1,0.6,3.2c-3.3,4-6.7,7.9-10,11.8
				c-0.2,0.3-0.5,0.6-0.8,0.6c0,0,0,0,0,0c-0.9,0.1-1.7-0.7-1.6-1.7c0,0,0,0,0-0.1c0.1-0.3,0.4-0.5,0.4-0.6
				c-2.1-2.5-4.4-4.9-6.3-7.5c-1.9-2.6-3.5-5.5-5.1-8.1c0.3,2.8,0.6,5.8,0.8,8.8c0.1,1.1,0,2.1,0,3.2c0,0.7,0.1,1.8-0.2,2.1
				C178.6,245.9,159.5,246.7,165.2,243.2z M188.7,190.7c-2.3,0.1-4.5,0.2-6.7,0.3c-0.8,0.1-0.7,0.7-0.7,6.8c2.6-0.8,5-1.5,7.4-2.3
				c0.2-0.1,0.5-0.6,0.5-0.8C189,193.3,188.8,192,188.7,190.7z"/>
			<path class="st89" d="M91.1,171.8c5.9-1.9,11.8-3.3,18-3.1c6.3,0.2,11.7,2.7,15.8,7.7c3.6,4.3,4.8,9.1,4.1,14.6
				c-0.5,3.4-2.5,5.8-4.8,8.2c-3.7,3.9-8.4,6.1-13.5,7.4c-1.2,0.3-2.3,0.7-3.4,0.9c-0.9,0.2-1.1,0.7-1.1,1.5c0.4,4.5,0.7,9,1.3,13.5
				c0.7,5.2,1.7,10.5,2.4,15.7c0.3,2.3,0.4,4.6,0.6,7c0.1,0.8-0.1,1.4-1,1.5c-0.9,0.1-1.2-0.5-1.3-1.2c-0.2-0.8-0.4-1.6-0.5-2.3
				c-4.6,0.5-9,0.9-13.6,1.4c0.1,0.5,0.1,1.1,0.2,1.6c0.1,0.8,0,1.5-0.9,1.7c-0.9,0.2-1.4-0.3-1.6-1c-0.5-1.6-1.1-3.3-1.3-4.9
				c-0.5-5.3-1.1-10.5-1.3-15.8c-0.2-7.5,0-15.1-0.1-22.6c-0.2-8.1-0.6-16.3-0.8-24.4c-0.1-2.7,0.3-5.5,0.4-8.2c0-0.4,0-0.8,0.3-1.1
				c0.2-0.3,0.7-0.7,1.1-0.7c0.3,0,0.8,0.5,0.9,0.8C91.2,170.5,91.1,171.1,91.1,171.8z M104,193.6c2.7-0.2,5.3-0.4,7.8-1.4
				c0.3-0.1,0.5-0.9,0.4-1.2c-0.8-2.1-1.6-4.2-2.4-6.3c-0.1-0.3-0.6-0.6-0.8-0.6c-2.1,0.4-4.2,1-6.4,1.5
				C103,188.4,103.5,190.9,104,193.6z"/>
			<path class="st89" d="M283.8,242.3c-4-0.1-7.8-0.1-11.8-0.2c-0.3,0.6-0.7,1.7-1.9,1.2c-1.3-0.5-0.8-1.7-0.6-2.7
				c2.2-9.2,4.3-18.5,6.7-27.6c2.1-8.1,4.6-16,7-24.1c0,0-0.1-0.1-0.2-0.1c-5.1-0.3-10.2-0.5-15.2-0.7c-1.1-0.1-2.3-0.1-3.4-0.3
				c-0.5-0.1-0.8-0.6-1.3-1c0.4-0.4,0.8-0.9,1.3-1.1c0.5-0.2,1.2,0,1.8,0c0.4-2.4,0.9-4.6,1.3-7c-0.3-0.1-0.6,0-0.8-0.2
				c-0.4-0.3-0.8-0.7-1.2-1c0.4-0.4,0.8-1,1.3-1.1c2.1-0.3,4.1-0.5,6.2-0.6c10.8-0.5,21.6-1.4,32.3-2.9c2.7-0.4,5.4-0.6,8.1-1
				c0.9-0.1,1.6,0.1,1.7,1c0.2,1-0.4,1.5-1.4,1.6c-1.1,0.1-1.4,0.7-1.6,1.8c-0.6,2.8-1.4,5.6-2.2,8.5c0,0,0,0,0,0
				c0.8-0.2,1.8-0.6,2,0.7c0.2,1.1-0.6,1.6-1.5,1.8c-3.1,0.6-6.3,1.1-9.4,1.6c-0.9,0.1-1.5,0.4-1.7,1.4c-1.2,5-2.4,10-3.6,15
				c-2.4,10.1-4.7,20.3-7.3,30.4c-0.8,3.1-1.6,6.2-2,9.4c-0.1,0.8-0.5,1.4-1.4,1.4c-0.9,0-1.2-0.6-1.2-1.5
				C283.7,244.4,283.8,243.5,283.8,242.3z"/>
			<path class="st89" d="M318.5,184.7c1.3-0.2,2.6-0.5,3.8-0.7c6-0.8,12-1.6,18-2.4c0.8-0.1,1.6-0.3,2.4-0.2c0,0,0,0,0,0
				c0.9,0.1,1.2,1.2,0.6,1.9c-0.1,0.2-0.3,0.3-0.4,0.4c-0.7,0.3-1.5,0.3-2.2,0.4c-1.4,12.3-1.3,8.1-0.2,9.9c0.4,0.7-0.1,1.5-1.3,1.7
				c-3.1,0.4-6.1,0.7-9.2,1c-1.9,0.2-3.9,0.5-5.8,0.7c-0.8,0.1-1.2,0.4-1.4,1.2c-0.5,3-1,5.9-1.5,9c2.4,0,4.7,0.1,7,0.1
				c0.9,0,1.8,0,2.7,0.2c2.3,0.3,3.5,2,2.8,4.2c-0.6,1.9-1.4,3.7-2.2,5.5c-0.3,0.7-0.5,1.4-1,2c-0.3,0.4-0.8,0.8-1.2,0.9
				c-2.7,0.5-5.3,0.9-8,1.2c-1.8,0.2-3.1,10.9-3.1,11.9c2.2-0.1,4.3-0.1,6.4-0.2c3-0.1,6.1-0.3,9.1-0.4c0.8,0,1.7-0.1,1.8,0.9
				c0.1,0.6-0.5,1.2-0.9,1.7c0.2,3.6-1.2,7-2.3,10.4c0.3,0.1,0.7,0,1,0.2c0.1,0.1,0.1,0.1,0.2,0.2c0.6,0.5,0.7,1.5,0,1.9
				c-0.1,0.1-0.2,0.1-0.3,0.1c-1.5,0.2-3,0-4.4,0.1c-3,0.2-6.1,0.6-9.1,0.6c-3.6,0.1-7.2,0-10.8-0.2c-1,0-8.4-0.7-10.7-1.7
				c-1.1-0.5-0.8-1.1,0.1-1.8c0.2-0.1,0.5-0.1,0.7-0.1c0.8,0.1,1.1-0.2,1.2-1.1c0.8-4.5,1.6-9.1,2.6-13.6
				c3.2-15.2,7.7-30.1,12.3-44.9c0.2-0.7,0.4-1.4,0.8-2l0,0c0.5-0.7,1.6-0.6,2,0.1c0.1,0.1,0.1,0.2,0.2,0.3
				C318.4,184.3,318.4,184.4,318.5,184.7z"/>
			<path class="st89" d="M133.7,238.5c4-25.3,3.3-24.7,5-36c1.1-7.1,2.6-14.1,3.9-21.1c0.4-2.1,0.9-4.2,1.5-6.3
				c0.1-0.5,0.6-1.2,1.1-1.3c0.7-0.2,1.1,0.4,1.3,1.1c0.1,0.2,0.6,0.5,0.9,0.5c2.7-0.1,5.5-0.1,8.2-0.3c1.8-0.2,2.6,0.3,2.3,2.1
				c-0.5,3.6-1.3,7.2-1.7,10.8c-0.6,5.2-1.2,10.4-1.5,15.5c-0.4,6.4-0.7,12.8-0.5,19.2c0.2,6.2,1,12.3,1.6,18.5
				c0.1,0.7,0.2,1.4,0.2,2.1c0,1-0.7,1.5-1.7,1.3c-0.4-0.1-0.8,0-1.3,0c-16.1-1-20.4,4.6-20.3-1.9
				C132.9,242.6,133.8,238.6,133.7,238.5z"/>
		</g>
		<g>
			<path class="st6" d="M157.6,312.8c-0.6-0.5-1.3-0.9-1.9-1.3c8.8-9.3,12.7-22.7,9.8-35.2c-6.1-26.3-41.7-37.4-59.5-15.4
				c-1.9,2.4-3.1,5.2-3.3,8.1c-0.1,0.5-0.1,1-0.1,1.6c0,27.5,0,55.1,0,82.6c0,4.6,2.2,7.8,5.2,9.7c6.4,5.7,18,4.6,27,3.3
				c12.1-1.8,24.5-7.9,30.2-19.3C171,335.1,168.3,320.7,157.6,312.8z M143,283.8c1,10.5-7.8,15.2-16.7,17.3c0-8.8,0-17.7,0-26.5
				C133.2,270.5,142.1,274.4,143,283.8z M137.5,341.4c-2.9,1.2-6.2,1.7-9.3,1.9c-0.6,0.1-1.3,0.1-1.9,0.1c0-5.7,0-11.4,0-17
				c3.5,0.4,6.9,1.1,10.3,2.2c2.6,0.9,8,1.9,8.1,5.4C144.9,337.6,140.2,340.3,137.5,341.4z"/>
			<path class="st6" d="M248.3,294.1c-4.1-16.9-14.7-37-33.7-36.9c0,0,0,0-0.1,0c-22.6-0.8-34.8,23.5-38.6,42.4
				c-3.9,19.2-4.2,46.1,12.5,59.8c16.9,13.8,43.5,7.7,54.7-10.2C253.1,333.4,252.6,311.7,248.3,294.1z M200.1,336.3
				C199.9,335.8,199.4,334.4,200.1,336.3L200.1,336.3z M227.1,324c0-1.4-0.6,11.4-7.7,17c0,0,0,0,0,0c-1.8,1.1-3.7,1.8-5.8,2.1
				c-6.5,1-18.8-0.2-15.8-31.6c1.3-13.4,11-38.9,20.8-27.8C225.2,295.2,228.9,307.2,227.1,324z"/>
			<path class="st6" d="M307.3,260.8c-5.8,10.4-11,21.2-15.5,32.2c-8.2-9.6-14.6-20.5-23-30.3c-4.1-4.9-12.4-4.2-16.7,0
				c-4.8,4.8-4.1,11.8,0,16.7c4.5,5.2,7.9,11.3,11.9,16.9c5.6,7.9,11.8,15.1,19,21.6c-3.4,11.3-6.1,22.7-8.1,34.4
				c-1.1,6.3,1.7,12.7,8.2,14.5c5.7,1.6,13.4-1.9,14.5-8.2c5.1-30.2,15.1-59.1,30.1-85.8C335.1,259.5,314.7,247.6,307.3,260.8z"/>
		</g>
		<path class="st89" d="M263.2,285.8c-18.7,20-62.5,14.4-72,3.2c-1.7-2-4.5,0.9-2.8,2.9c7.5,8.9,26.3,10.9,37.5,11.2
			c-2.5,18.6,38.1,21.8,29.2-6c4-2.2,7.7-4.9,11-8.5C267.9,286.7,265,283.9,263.2,285.8z"/>
	</g>
	<path class="st114" d="M303.8,102.5c2-7.6-10.3-11.2-12.4-3.6c-1.9,7-9.5,9.9-16.3,11.3c-30.4,6.6-24.3-27.3-48.1-41.1
		c-13.1-7.6-29-4.6-40.2,4.6c-12,9.9-4.7,30.4-16.5,39.7c-8.9,7.1-22.9-5.3-33-10.7c-16.8-9-10,27.5,13.9,43.7
		c-0.7,0.8-1.3,1.8-1.7,3.1c-12.7,42.5,41.8-8.7,133.3,15.9c4.6,1.2,16.9-2.3-0.5-21.2C294.9,133.8,299.8,117.5,303.8,102.5z
		 M237.1,134.3c-2.7,1-1.5,0.3-0.5,3c1.7,4.5-7.2,4.1-6.5,0.3c-3.9-1.4-11.7-7.3-14.4-9.4c-3,2.2-10.3,7.6-14.1,8.9
		c0.7,3.9-8.2,4.1-6.5-0.4c1-2.7,2.2-2-0.5-3c-3.2-1.3-1.4-5.7,1.8-4.9c5.3,1.4,9.5-1.7,13.4-5c-3.6-2.6-7.3-5-11.5-6.8
		c-2.6-1.1-2.3-7.1,4.5-3.7c-2.4-5.2,2.4-8.2,4.5-5.4c2.9,4,5.6,7.6,8.4,11c7.7-8.7,10.4-15.8,13.4-10.7c0.9,1.6,0.7,3.3-0.1,5
		c6.7-3.2,7.2,2.6,4.5,3.7c-4.3,1.8-8.2,4.3-12,7c3.9,3.4,8.3,6.9,13.8,5.5C238.6,128.6,240.3,133.1,237.1,134.3z"/>
</g>
</svg>
